<?xml version="1.0" encoding="utf-8"?>
<!-- Generator: Adobe Illustrator 19.1.0, SVG Export Plug-In . SVG Version: 6.00 Build 0)  -->
<svg version="1.1" id="Layer_1" xmlns="http://www.w3.org/2000/svg" xmlns:xlink="http://www.w3.org/1999/xlink" x="0px" y="0px"
	 viewBox="0 0 368.4 323.6" style="enable-background:new 0 0 368.4 323.6;" width="536px" height="471px" xml:space="preserve">
<style type="text/css">
	.st0{fill:none;stroke:#000000;stroke-width:0.75;stroke-linejoin:round;stroke-miterlimit:10;}
	.st1{opacity:0.1;}
	.st2{fill:#FFD503;}
	.st3{fill:none;}
	.st4{fill:#FBBF31;}
	.st5{fill:#FFF9C3;}
	.st6{fill:#2AC5D9;stroke:#000000;stroke-width:0.75;stroke-linejoin:round;stroke-miterlimit:10;}
	.st7{opacity:0.15;}
	.st8{fill:none;stroke:#000000;stroke-width:0.75;stroke-miterlimit:10;}
	.st9{fill:#161F60;}
	.st10{fill:#691BE2;}
	.st11{fill:#FFCEBD;}
	.st12{fill:#F1F4F8;stroke:#000000;stroke-width:0.75;stroke-miterlimit:10;}
	.st13{fill:#2962FF;}
	.st14{fill:#FFF59C;}
	.st15{fill:#342191;}
	.st16{fill:none;stroke:#CE775F;stroke-width:0.75;stroke-linecap:round;stroke-miterlimit:10;}
	.st17{fill:#231F20;}
	.st18{fill:none;stroke:#161F60;stroke-width:0.75;stroke-linecap:round;stroke-miterlimit:10;}
	.st19{fill:#1D56D6;}
	.st20{fill:#5E38B0;}
	.st21{opacity:0.6;fill:#FFFFFF;}
</style>
<path class="st0" d="M252.6,109.3h-182c-4.1,0-7.4-3.3-7.4-7.4v0c0-4.1,3.3-7.4,7.4-7.4h182c4.1,0,7.4,3.3,7.4,7.4v0
	C260,106,256.7,109.3,252.6,109.3z"/>
<rect x="49" y="73.1" class="st0" width="229.5" height="236.2"/>
<rect x="49" y="129.3" class="st1" width="171.1" height="45.4"/>
<g>
	<rect x="0" y="115.3" class="st2" width="211.1" height="45.4"/>
	<g>
		<path class="st3" d="M86.9,124.6c0.8-2.2,0.6-3.3,0.3-3.6c-0.1-0.1-0.4-0.2-0.7-0.2c-1,0-2.9,0.6-5.3,2.4
			c-5.3,4.1-10,12.1-8.2,22.3C79,140.6,83.9,133.4,86.9,124.6z"/>
		<path class="st3" d="M76.5,160.6c-2.9-2.9-4.8-5.9-5.6-8c-0.1-0.1-0.1-0.3-0.2-0.4c-8.5,5.3-18.5,7-28,3.9
			c-5.1-1.7-9.5-5-12.8-9.8c-2.9,3.2-6.2,5.5-9.9,6.8c-7.9,2.7-15.7,0.4-20-1.5v9.1"/>
		<path class="st3" d="M132.1,143c11.2-16.8,9.5-20.3,9.5-20.4c-0.1,0-0.2,0-0.3,0c-2.5,0-12.6,7.1-19.7,20.4
			c-3.1,6-5.3,12-6.4,17.6h1C121.6,156.6,126.9,150.7,132.1,143z"/>
		<path class="st3" d="M29.9,137.8c0.2,0.4,0.3,0.8,0.5,1.1c1.2-2.1,2.3-4.5,3.3-7.2c2.5-6.8,3.6-12.2,3.9-16.4H26.7
			C26.3,121.9,27,130.4,29.9,137.8z"/>
		<path class="st3" d="M172.3,120.6c0,0-0.1,0-0.3,0c-0.6,0-2,0.2-5,1.8c-9.7,5-14.1,10.4-12.6,15.2c0.8,2.4,3.2,4.8,6.7,6.9
			c1.6-2.4,3.2-4.9,4.6-7.3C173.8,123.5,172.4,120.7,172.3,120.6z"/>
		<path class="st4" d="M74.6,151.2c-0.2-0.4-0.3-0.9-0.5-1.3c7.1-5.5,13-13.8,16.6-24c1.8-5.1,0-7.3-1.2-8.1
			c-2.5-1.8-6.6-0.9-10.8,2.4c-6.5,5.1-12.4,15.3-9.2,28.1c-7.8,5.2-16.8,6.9-25.6,4c-4.7-1.5-8.5-4.7-11.4-9.3
			c1.9-2.8,3.6-6.1,5-10c2.6-7.1,3.9-13,4.2-17.7h-4c-0.3,4.2-1.4,9.6-3.9,16.4c-1,2.7-2.1,5.1-3.3,7.2c-0.2-0.4-0.3-0.7-0.5-1.1
			c-2.9-7.3-3.6-15.8-3.2-22.5h-4c-0.4,7.3,0.4,16.2,3.5,24c0.5,1.2,1,2.4,1.6,3.5c-2.6,3.2-5.6,5.4-9,6.6
			c-7.7,2.7-15.6-0.6-18.7-2.2v4.4c4.3,1.9,12.1,4.2,20,1.5c3.8-1.3,7.1-3.5,9.9-6.8c3.3,4.8,7.6,8.1,12.8,9.8
			c9.6,3.1,19.5,1.5,28-3.9c0.1,0.1,0.1,0.3,0.2,0.4c0.8,2.1,2.8,5,5.6,8h5.9C78.3,157.3,75.5,153.4,74.6,151.2z M81.2,123.3
			c2.4-1.9,4.3-2.4,5.3-2.4c0.3,0,0.6,0.1,0.7,0.2c0.3,0.2,0.5,1.4-0.3,3.6c-3,8.8-8,16-13.9,21C71.2,135.4,75.9,127.4,81.2,123.3z"
			/>
		<path class="st4" d="M135.4,145.3c12.7-18.9,10.4-23.1,9.7-24.5c-0.7-1.3-2-2.1-3.7-2.1c-6.1,0-17,10.5-23.4,22.5
			c-3.5,6.6-5.8,13.3-7,19.4h4.1c1.1-5.6,3.3-11.6,6.4-17.6c7.1-13.3,17.2-20.4,19.7-20.4c0.1,0,0.2,0,0.3,0c0,0,1.7,3.5-9.5,20.4
			c-5.1,7.7-10.5,13.6-15.9,17.6h6.4C126.9,156.6,131.2,151.5,135.4,145.3z"/>
		<path class="st4" d="M198.6,153.9c4.8-0.7,9-1.6,12.5-2.5v-4.1c-3.6,1-8,1.9-13.1,2.6c-12.7,1.8-25-0.1-33.4-3.7
			c3.7-5.6,6.8-10.9,8.8-15c3.4-7.1,3.9-11.3,1.7-13.4c-2.5-2.4-6.9-0.6-10,1c-14.9,7.7-16.1,15.2-14.6,20c1.1,3.4,4.1,6.5,8.3,9
			c-3,4.4-6.3,8.8-9.5,12.8h5.1c2.8-3.6,5.5-7.4,8-11C171.8,153.9,185.5,155.8,198.6,153.9z M154.4,137.6
			c-1.5-4.8,2.9-10.2,12.6-15.2c2.9-1.5,4.4-1.8,5-1.8c0.3,0,0.3,0,0.3,0c0,0,1.4,2.8-6.6,16.5c-1.4,2.4-3,4.9-4.6,7.3
			C157.6,142.4,155.2,140,154.4,137.6z"/>
	</g>
</g>
<rect x="49" y="207" class="st1" width="183.1" height="45.4"/>
<g>
	<rect x="44" y="277.9" class="st5" width="211.1" height="45.4"/>
	<rect x="44" y="277.9" class="st0" width="211.1" height="45.4"/>
	<polygon class="st6" points="58.1,263.8 44,277.9 255.1,277.9 255.1,323.3 269.2,309.2 269.2,263.8 	"/>
	<polygon class="st7" points="255.1,323.3 255.1,277.9 269.2,263.8 269.2,309.2 	"/>
	<polygon class="st1" points="278.5,309.3 278.5,273.1 269.2,263.8 269.2,309.2 	"/>
	<line class="st8" x1="269.3" y1="263.9" x2="255.2" y2="278"/>
</g>
<path class="st9" d="M240.3,258.7c-3.7,3.5-10.7,7.2-12.5,10c-0.5,0.8,0.1,1.9,1,1.9l29.2,0c0.9,0,1.6-0.7,1.6-1.5
	c0.2-2.3,0.4-6.7-0.1-10C258.9,254.6,242.3,256.9,240.3,258.7z"/>
<path class="st10" d="M297.8,175c0,0-39.4,4.9-42.7,17.9c-2.9,11.7-14.8,63-14.8,65.8c4.3,1.2,25.9,3.1,25.9,3.1l13.4-53.7l45.6-6.8
	l-1.5-29.1L297.8,175z"/>
<path class="st1" d="M300.6,177.1c0,0-29.9,4.9-32.1,18.1c-1,6.2,2.6,23.7-2.4,32c-2.5,4.2,0.2,34.6,0.2,34.6l13.4-53.7l45.6-6.8
	l-0.1-22.6L300.6,177.1z"/>
<path class="st9" d="M323.9,307.8c-2.6,2.2-7.5,6.1-9.4,8.3c-0.6,0.8-0.1,1.9,0.9,1.9l30,0c0.8,0,1.4-0.6,1.5-1.3
	c0.3-3.1,0.3-10.8-4.7-16.2C335.7,293.6,327,305.2,323.9,307.8z"/>
<path class="st11" d="M265,134.8c0,0,1.5,5.5,5.1,7.8s22.9,8.3,22.9,8.3l-8.3-19.4L265,134.8z"/>
<rect x="49" y="60.4" class="st12" width="229.5" height="20.1"/>
<path class="st10" d="M311.7,167.3c0,0,9.9,106.6,10.4,115.8c0.5,9.2,1.9,24.7,1.9,24.7s24,0.5,25.9,0l-5.1-144.2L311.7,167.3z"/>
<path class="st1" d="M346.2,203.8l-1.4-40.2l-33.2,3.7c0,0,0.6,5.9,1.6,17.6C323.8,187,334.8,191.5,346.2,203.8z"/>
<g>
	<circle class="st13" cx="61.2" cy="69.7" r="2"/>
	<circle class="st13" cx="70.8" cy="69.7" r="2"/>
	<circle class="st13" cx="80.4" cy="69.7" r="2"/>
</g>
<rect x="18" y="196.6" class="st14" width="211.1" height="45.4"/>
<path class="st15" d="M301.3,111.3c4.5-11.8,17.5-21.6,34.9-13.7c5.8,2.7,6.7,5.5,9.1,9.7c13.7,24,8.1,67,8.1,67
	c-24.6,5.4-44.5,6.8-57.9,1.1C296.9,170.9,297.9,120,301.3,111.3z"/>
<path class="st1" d="M327.9,102.9c-1.9,1.8-1.1,16.9,3.8,31.7c0.2,0.6,2.5-0.2,2.5-0.2c2,5.7,6.1,14.7,5.9,18.6
	c-0.4,8.6,10.4-5.6,10.4-5.6s-2.2-19.9-7.6-26.7C332.2,107.2,330.7,100.3,327.9,102.9z"/>
<g>
	<path class="st11" d="M307.7,90l3.1,12.2c6,2,12-0.8,14.4-6.9l-7.5-19L307.7,90z"/>
	<path class="st1" d="M308,91.4l0.8,3.2c10.4-1.1,7.1-13.9,7.1-13.9L308,91.4z"/>
	<g>
		<path class="st11" d="M299.4,69.5c0,0-0.5,2.8-0.8,7.9c-0.1,1-2.2,4.5-2.2,5.5c0,1,2.3,0.9,2.4,1.8c0.6,4.4,1.9,8.3,6.6,8.3
			c8.2,0,11.2-10.6,11.2-10.6l-1-18.4L299.4,69.5z"/>
		<path class="st16" d="M301.8,85.9c0,0,1.1,0,2.4-1.4"/>
		
			<ellipse transform="matrix(-0.9871 0.16 -0.16 -0.9871 611.2787 108.2489)" class="st17" cx="301.3" cy="78.7" rx="0.6" ry="0.8"/>
		<path class="st18" d="M302.4,76.1c0,0-0.9-0.3-1.7-0.3"/>
	</g>
	<path class="st9" d="M321.6,68.7c-1.1-2.5-3.6-10.3-17.9-4.7c-4.5,1.8-6.9,7.4-3.2,6c3.4-0.6,4-1.7,7.3-0.6c4.4,1.5,0.8,8,3.6,8
		c1.4,0,1.1-4.4,3.3-3.9c1.9,0.5,3.5,1.1,1.9,4.4c-1.4,2.8,1.2,5.5,1.2,5.5C320,86.1,325.6,77.5,321.6,68.7z"/>
	<ellipse transform="matrix(0.9871 -0.16 0.16 0.9871 -8.082 51.4561)" class="st11" cx="315.4" cy="75.9" rx="2.6" ry="3"/>
</g>
<g>
	<g>
		
			<rect x="245.4" y="108.8" transform="matrix(0.8115 0.5844 -0.5844 0.8115 118.6539 -134.8999)" class="st19" width="46" height="15.3"/>
		<path class="st13" d="M348.6,191.9l-82-59c-3.2-2.3-3.9-6.8-1.6-10l8.5-11.8c2.3-3.2,6.8-3.9,10-1.6l82,59c3.2,2.3,3.9,6.8,1.6,10
			l-8.5,11.8C356.3,193.5,351.8,194.3,348.6,191.9z"/>
	</g>
	<g>
		<path class="st13" d="M214.7,138.5c-17.6,2.9-36.3-1-51.9-12.2c-15.1-10.9-25.1-27-28.1-45.4c-3-18.4,1.4-36.8,12.2-51.9
			C169.4-2.3,213-9.3,244.2,13.1s38.3,66.1,15.8,97.3C248.8,126,232.3,135.6,214.7,138.5z M195.5,20.8c-12.5,2-24.3,8.8-32.3,19.9
			c-7.7,10.7-10.8,23.9-8.7,36.9c2.1,13.1,9.2,24.5,20,32.3c22.2,16,53.2,10.9,69.2-11.3c16-22.2,10.9-53.2-11.3-69.2
			C221.3,21.5,208,18.8,195.5,20.8z"/>
	</g>
</g>
<path class="st1" d="M319.9,171.3l6.5,4.7c0,0,13.6,4.4,25.5,0.3c4.7-1.6,10.8-5,10.7-9.7c-1.9-1.1-7.4-6.1-7.4-6.1l-13.3,1.2
	L319.9,171.3z"/>
<path class="st11" d="M338.5,99.9c0,0,3.5,1.7,6.7,6c8.7,12,22.3,37.3,17.8,55.6c-4.4,17.7-45.5,11.6-52.4,10.2
	c-12.9-2.5-13.5-8.2-13.5-8.2s-1.6-9.3-0.8-9.2c0.4,0,1.2,0.9,1.8,1.3c3.5,2.2,8.5,4.5,8.5,4.5s34.7,3.1,35.9-8.4
	C343.4,143,316.4,99,338.5,99.9z"/>
<path class="st11" d="M307.3,160.6c-2.1-2-3.5-5.3-4.7-5.9c-3.9-2.2-1.3,3.9,0.5,5.9S307.3,160.6,307.3,160.6z"/>
<path class="st11" d="M277.3,140.6c-1.1-0.8-0.8-2.2-0.4-3.1c0.2-0.3,2.3-4.6,2.3-5.3c0-0.4-0.2-0.8-0.7-1c-1.2-0.3-2.1,1.6-2.1,1.5
	c0-0.1,2.1-3.8,0.3-4.3s-3.4,4.5-2.7,2c0.4-1.4,1.2-3.4,0.1-3.9c-1.7-0.7-4.6,5.5-5,6.5c0.2-0.5,0.6-5.4,0.7-5.8
	c0.1-1.2-0.3-2.1-1.2-1.8c-1.9,0.7-2.5,5.3-3.4,8.2c-0.9,3,1.5,2.2,2.6,3.7c1.3,1.3,5.5,4.4,6.4,4.7
	C276,142.6,278.9,141.8,277.3,140.6z"/>
<path class="st20" d="M334.3,130.1c0,0-12.4-22.7-4.9-30.5s18.7,6.5,25.3,16.9C357.4,120.6,334.3,130.1,334.3,130.1z"/>
<path class="st21" d="M195.5,20.8c-12.5,2-24.3,8.8-32.3,19.9c-7.7,10.7-10.8,23.9-8.7,36.9c2.1,13.1,9.2,24.5,20,32.3
	c22.2,16,53.2,10.9,69.2-11.3c16-22.2,10.9-53.2-11.3-69.2C221.3,21.5,208,18.8,195.5,20.8z"/>
</svg>
